# Wavefront OBJ file automatically generated by Tiled2Unity

# Vertices (Count = 121)
v 0 -0.32 0
v -0.32 -0.32 0
v -0.32 0 0
v 0 0 0
v -0.64 -0.32 0
v -0.64 0 0
v -0.96 -0.32 0
v -0.96 0 0
v -1.28 -0.32 0
v -1.28 0 0
v -1.6 -0.32 0
v -1.6 0 0
v -1.92 -0.32 0
v -1.92 0 0
v -2.24 -0.32 0
v -2.24 0 0
v -2.56 -0.32 0
v -2.56 0 0
v -2.88 -0.32 0
v -2.88 0 0
v -3.2 -0.32 0
v -3.2 0 0
v 0 -0.64 0
v -0.32 -0.64 0
v -0.64 -0.64 0
v -0.96 -0.64 0
v -1.28 -0.64 0
v -1.6 -0.64 0
v -1.92 -0.64 0
v -2.24 -0.64 0
v -2.56 -0.64 0
v -2.88 -0.64 0
v -3.2 -0.64 0
v 0 -0.96 0
v -0.32 -0.96 0
v -0.64 -0.96 0
v -0.96 -0.96 0
v -1.28 -0.96 0
v -1.6 -0.96 0
v -1.92 -0.96 0
v -2.24 -0.96 0
v -2.56 -0.96 0
v -2.88 -0.96 0
v -3.2 -0.96 0
v 0 -1.28 0
v -0.32 -1.28 0
v -0.64 -1.28 0
v -0.96 -1.28 0
v -1.28 -1.28 0
v -1.6 -1.28 0
v -1.92 -1.28 0
v -2.24 -1.28 0
v -2.56 -1.28 0
v -2.88 -1.28 0
v -3.2 -1.28 0
v 0 -1.6 0
v -0.32 -1.6 0
v -0.64 -1.6 0
v -0.96 -1.6 0
v -1.28 -1.6 0
v -1.6 -1.6 0
v -1.92 -1.6 0
v -2.24 -1.6 0
v -2.56 -1.6 0
v -2.88 -1.6 0
v -3.2 -1.6 0
v 0 -1.92 0
v -0.32 -1.92 0
v -0.64 -1.92 0
v -0.96 -1.92 0
v -1.28 -1.92 0
v -1.6 -1.92 0
v -1.92 -1.92 0
v -2.24 -1.92 0
v -2.56 -1.92 0
v -2.88 -1.92 0
v -3.2 -1.92 0
v 0 -2.24 0
v -0.32 -2.24 0
v -0.64 -2.24 0
v -0.96 -2.24 0
v -1.28 -2.24 0
v -1.6 -2.24 0
v -1.92 -2.24 0
v -2.24 -2.24 0
v -2.56 -2.24 0
v -2.88 -2.24 0
v -3.2 -2.24 0
v 0 -2.56 0
v -0.32 -2.56 0
v -0.64 -2.56 0
v -0.96 -2.56 0
v -1.28 -2.56 0
v -1.6 -2.56 0
v -1.92 -2.56 0
v -2.24 -2.56 0
v -2.56 -2.56 0
v -2.88 -2.56 0
v -3.2 -2.56 0
v 0 -2.88 0
v -0.32 -2.88 0
v -0.64 -2.88 0
v -0.96 -2.88 0
v -1.28 -2.88 0
v -1.6 -2.88 0
v -1.92 -2.88 0
v -2.24 -2.88 0
v -2.56 -2.88 0
v -2.88 -2.88 0
v -3.2 -2.88 0
v 0 -3.2 0
v -0.32 -3.2 0
v -0.64 -3.2 0
v -0.96 -3.2 0
v -1.28 -3.2 0
v -1.6 -3.2 0
v -1.92 -3.2 0
v -2.24 -3.2 0
v -2.56 -3.2 0
v -2.88 -3.2 0
v -3.2 -3.2 0

# Texture cooridinates (Count = 104)
vt 0.1334554 0.0001220703
vt 0.1665446 0.0001220703
vt 0.1665446 0.03321129
vt 0.1334554 0.03321129
vt 0.1667887 0.0001220703
vt 0.1998779 0.0001220703
vt 0.1998779 0.03321129
vt 0.1667887 0.03321129
vt 0.2001221 0.0001220703
vt 0.2332113 0.0001220703
vt 0.2332113 0.03321129
vt 0.2001221 0.03321129
vt 0.1665446 0.03345543
vt 0.1665446 -0.0001220703
vt 0.2001221 -0.0001220703
vt 0.2001221 0.03345543
vt 0.2334554 0.0001220703
vt 0.2665446 0.0001220703
vt 0.2665446 0.03321129
vt 0.2334554 0.03321129
vt 0.1334554 0.2334554
vt 0.1665446 0.2334554
vt 0.1665446 0.2665446
vt 0.1334554 0.2665446
vt 0.1334554 0.2001221
vt 0.1665446 0.2001221
vt 0.1665446 0.2332113
vt 0.1334554 0.2332113
vt 0.3667887 0.2667887
vt 0.3998779 0.2667887
vt 0.3998779 0.2998779
vt 0.3667887 0.2998779
vt 0.0001220703 0.5001221
vt 0.03321126 0.5001221
vt 0.03321126 0.5332112
vt 0.0001220703 0.5332112
vt 0.03345541 0.5001221
vt 0.0665446 0.5001221
vt 0.0665446 0.5332112
vt 0.03345541 0.5332112
vt 0.06678874 0.5001221
vt 0.09987793 0.5001221
vt 0.09987793 0.5332112
vt 0.06678874 0.5332112
vt 0.0001220703 0.4667887
vt 0.03321126 0.4667887
vt 0.03321126 0.4998779
vt 0.0001220703 0.4998779
vt 0.03345541 0.4667887
vt 0.0665446 0.4667887
vt 0.0665446 0.4998779
vt 0.03345541 0.4998779
vt 0.06678874 0.4667887
vt 0.09987793 0.4667887
vt 0.09987793 0.4998779
vt 0.06678874 0.4998779
vt 0.0001220703 0.4334554
vt 0.03321126 0.4334554
vt 0.03321126 0.4665446
vt 0.0001220703 0.4665446
vt 0.03345541 0.4334554
vt 0.0665446 0.4334554
vt 0.0665446 0.4665446
vt 0.03345541 0.4665446
vt 0.06678874 0.4334554
vt 0.09987793 0.4334554
vt 0.09987793 0.4665446
vt 0.06678874 0.4665446
vt 0.1001221 0.4667887
vt 0.1332113 0.4667887
vt 0.1332113 0.4998779
vt 0.1001221 0.4998779
vt 0.1334554 0.4667887
vt 0.1665446 0.4667887
vt 0.1665446 0.4998779
vt 0.1334554 0.4998779
vt 0.1001221 0.4334554
vt 0.1332113 0.4334554
vt 0.1332113 0.4665446
vt 0.1001221 0.4665446
vt 0.1334554 0.4334554
vt 0.1665446 0.4334554
vt 0.1665446 0.4665446
vt 0.1334554 0.4665446
vt 0.3001221 0.3001221
vt 0.3332113 0.3001221
vt 0.3332113 0.3332112
vt 0.3001221 0.3332112
vt 0.3334554 0.3001221
vt 0.3665446 0.3001221
vt 0.3665446 0.3332112
vt 0.3334554 0.3332112
vt 0.3001221 0.2667887
vt 0.3332113 0.2667887
vt 0.3332113 0.2998779
vt 0.3001221 0.2998779
vt 0.3334554 0.2667887
vt 0.3665446 0.2667887
vt 0.3665446 0.2998779
vt 0.3334554 0.2998779
vt 0.0001220703 0.0001220703
vt 0.9998779 0.0001220703
vt 0.9998779 0.9998779
vt 0.0001220703 0.9998779

# Normal
vn 0 0 -1

# Groups (Count = 4)

g mesh_0001
f 1/1/1 2/2/1 3/3/1 4/4/1
f 2/5/1 5/6/1 6/7/1 3/8/1
f 5/5/1 7/6/1 8/7/1 6/8/1
f 7/5/1 9/6/1 10/7/1 8/8/1
f 9/5/1 11/6/1 12/7/1 10/8/1
f 11/5/1 13/6/1 14/7/1 12/8/1
f 13/5/1 15/6/1 16/7/1 14/8/1
f 15/5/1 17/6/1 18/7/1 16/8/1
f 17/5/1 19/6/1 20/7/1 18/8/1
f 19/9/1 21/10/1 22/11/1 20/12/1
f 23/13/1 24/14/1 2/15/1 1/16/1
f 24/17/1 25/18/1 5/19/1 2/20/1
f 25/17/1 26/18/1 7/19/1 5/20/1
f 26/17/1 27/18/1 9/19/1 7/20/1
f 27/17/1 28/18/1 11/19/1 9/20/1
f 28/17/1 29/18/1 13/19/1 11/20/1
f 29/17/1 30/18/1 15/19/1 13/20/1
f 30/17/1 31/18/1 17/19/1 15/20/1
f 31/17/1 32/18/1 19/19/1 17/20/1
f 32/15/1 33/16/1 21/13/1 19/14/1
f 34/13/1 35/14/1 24/15/1 23/16/1
f 35/17/1 36/18/1 25/19/1 24/20/1
f 36/17/1 37/18/1 26/19/1 25/20/1
f 37/17/1 38/18/1 27/19/1 26/20/1
f 38/17/1 39/18/1 28/19/1 27/20/1
f 39/17/1 40/18/1 29/19/1 28/20/1
f 40/17/1 41/18/1 30/19/1 29/20/1
f 41/17/1 42/18/1 31/19/1 30/20/1
f 42/17/1 43/18/1 32/19/1 31/20/1
f 43/15/1 44/16/1 33/13/1 32/14/1
f 45/13/1 46/14/1 35/15/1 34/16/1
f 46/17/1 47/18/1 36/19/1 35/20/1
f 47/17/1 48/18/1 37/19/1 36/20/1
f 48/17/1 49/18/1 38/19/1 37/20/1
f 49/17/1 50/18/1 39/19/1 38/20/1
f 50/17/1 51/18/1 40/19/1 39/20/1
f 51/17/1 52/18/1 41/19/1 40/20/1
f 52/17/1 53/18/1 42/19/1 41/20/1
f 53/17/1 54/18/1 43/19/1 42/20/1
f 54/15/1 55/16/1 44/13/1 43/14/1
f 56/13/1 57/14/1 46/15/1 45/16/1
f 57/17/1 58/18/1 47/19/1 46/20/1
f 58/17/1 59/18/1 48/19/1 47/20/1
f 59/17/1 60/18/1 49/19/1 48/20/1
f 60/17/1 61/18/1 50/19/1 49/20/1
f 61/17/1 62/18/1 51/19/1 50/20/1
f 62/17/1 63/18/1 52/19/1 51/20/1
f 63/17/1 64/18/1 53/19/1 52/20/1
f 64/17/1 65/18/1 54/19/1 53/20/1
f 65/15/1 66/16/1 55/13/1 54/14/1
f 67/13/1 68/14/1 57/15/1 56/16/1
f 68/17/1 69/18/1 58/19/1 57/20/1
f 69/17/1 70/18/1 59/19/1 58/20/1
f 70/17/1 71/18/1 60/19/1 59/20/1
f 71/17/1 72/18/1 61/19/1 60/20/1
f 72/17/1 73/18/1 62/19/1 61/20/1
f 73/17/1 74/18/1 63/19/1 62/20/1
f 74/17/1 75/18/1 64/19/1 63/20/1
f 75/17/1 76/18/1 65/19/1 64/20/1
f 76/15/1 77/16/1 66/13/1 65/14/1
f 78/13/1 79/14/1 68/15/1 67/16/1
f 79/17/1 80/18/1 69/19/1 68/20/1
f 80/17/1 81/18/1 70/19/1 69/20/1
f 81/17/1 82/18/1 71/19/1 70/20/1
f 82/17/1 83/18/1 72/19/1 71/20/1
f 83/17/1 84/18/1 73/19/1 72/20/1
f 84/17/1 85/18/1 74/19/1 73/20/1
f 85/17/1 86/18/1 75/19/1 74/20/1
f 86/17/1 87/18/1 76/19/1 75/20/1
f 87/15/1 88/16/1 77/13/1 76/14/1
f 89/13/1 90/14/1 79/15/1 78/16/1
f 90/17/1 91/18/1 80/19/1 79/20/1
f 91/17/1 92/18/1 81/19/1 80/20/1
f 92/17/1 93/18/1 82/19/1 81/20/1
f 93/17/1 94/18/1 83/19/1 82/20/1
f 94/17/1 95/18/1 84/19/1 83/20/1
f 95/17/1 96/18/1 85/19/1 84/20/1
f 96/17/1 97/18/1 86/19/1 85/20/1
f 97/17/1 98/18/1 87/19/1 86/20/1
f 98/15/1 99/16/1 88/13/1 87/14/1
f 100/13/1 101/14/1 90/15/1 89/16/1
f 101/17/1 102/18/1 91/19/1 90/20/1
f 102/17/1 103/18/1 92/19/1 91/20/1
f 103/17/1 104/18/1 93/19/1 92/20/1
f 104/17/1 105/18/1 94/19/1 93/20/1
f 105/17/1 106/18/1 95/19/1 94/20/1
f 106/17/1 107/18/1 96/19/1 95/20/1
f 107/17/1 108/18/1 97/19/1 96/20/1
f 108/17/1 109/18/1 98/19/1 97/20/1
f 109/15/1 110/16/1 99/13/1 98/14/1
f 111/11/1 112/12/1 101/9/1 100/10/1
f 112/7/1 113/8/1 102/5/1 101/6/1
f 113/7/1 114/8/1 103/5/1 102/6/1
f 114/7/1 115/8/1 104/5/1 103/6/1
f 115/17/1 116/18/1 105/19/1 104/20/1
f 116/17/1 117/18/1 106/19/1 105/20/1
f 117/7/1 118/8/1 107/5/1 106/6/1
f 118/7/1 119/8/1 108/5/1 107/6/1
f 119/7/1 120/8/1 109/5/1 108/6/1
f 120/3/1 121/4/1 110/1/1 109/2/1

g mesh_0002
f 24/21/1 25/22/1 5/23/1 2/24/1
f 31/21/1 32/22/1 19/23/1 17/24/1
f 35/25/1 36/26/1 25/27/1 24/28/1
f 42/25/1 43/26/1 32/27/1 31/28/1
f 69/29/1 70/30/1 59/31/1 58/32/1
f 70/29/1 71/30/1 60/31/1 59/32/1
f 96/33/1 97/34/1 86/35/1 85/36/1
f 97/37/1 98/38/1 87/39/1 86/40/1
f 98/41/1 99/42/1 88/43/1 87/44/1
f 107/45/1 108/46/1 97/47/1 96/48/1
f 108/49/1 109/50/1 98/51/1 97/52/1
f 109/53/1 110/54/1 99/55/1 98/56/1
f 118/57/1 119/58/1 108/59/1 107/60/1
f 119/61/1 120/62/1 109/63/1 108/64/1
f 120/65/1 121/66/1 110/67/1 109/68/1

g mesh_0003
f 29/69/1 30/70/1 15/71/1 13/72/1
f 30/73/1 31/74/1 17/75/1 15/76/1
f 40/77/1 41/78/1 30/79/1 29/80/1
f 41/81/1 42/82/1 31/83/1 30/84/1

g mesh_0004
f 69/85/1 70/86/1 59/87/1 58/88/1
f 70/89/1 71/90/1 60/91/1 59/92/1
f 80/93/1 81/94/1 70/95/1 69/96/1
f 81/97/1 82/98/1 71/99/1 70/100/1

g mesh_0005
f 1/101/1 2/102/1 3/103/1 4/104/1
f 2/101/1 5/102/1 6/103/1 3/104/1
f 5/101/1 7/102/1 8/103/1 6/104/1
f 7/101/1 9/102/1 10/103/1 8/104/1
f 9/101/1 11/102/1 12/103/1 10/104/1
f 11/101/1 13/102/1 14/103/1 12/104/1
f 13/101/1 15/102/1 16/103/1 14/104/1
f 15/101/1 17/102/1 18/103/1 16/104/1
f 17/101/1 19/102/1 20/103/1 18/104/1
f 19/101/1 21/102/1 22/103/1 20/104/1
f 23/101/1 24/102/1 2/103/1 1/104/1
f 29/101/1 30/102/1 15/103/1 13/104/1
f 30/101/1 31/102/1 17/103/1 15/104/1
f 32/101/1 33/102/1 21/103/1 19/104/1
f 34/101/1 35/102/1 24/103/1 23/104/1
f 35/101/1 36/102/1 25/103/1 24/104/1
f 40/101/1 41/102/1 30/103/1 29/104/1
f 41/101/1 42/102/1 31/103/1 30/104/1
f 42/101/1 43/102/1 32/103/1 31/104/1
f 43/101/1 44/102/1 33/103/1 32/104/1
f 45/101/1 46/102/1 35/103/1 34/104/1
f 54/101/1 55/102/1 44/103/1 43/104/1
f 56/101/1 57/102/1 46/103/1 45/104/1
f 65/101/1 66/102/1 55/103/1 54/104/1
f 67/101/1 68/102/1 57/103/1 56/104/1
f 69/101/1 70/102/1 59/103/1 58/104/1
f 70/101/1 71/102/1 60/103/1 59/104/1
f 76/101/1 77/102/1 66/103/1 65/104/1
f 78/101/1 79/102/1 68/103/1 67/104/1
f 80/101/1 81/102/1 70/103/1 69/104/1
f 81/101/1 82/102/1 71/103/1 70/104/1
f 87/101/1 88/102/1 77/103/1 76/104/1
f 89/101/1 90/102/1 79/103/1 78/104/1
f 98/101/1 99/102/1 88/103/1 87/104/1
f 100/101/1 101/102/1 90/103/1 89/104/1
f 108/101/1 109/102/1 98/103/1 97/104/1
f 109/101/1 110/102/1 99/103/1 98/104/1
f 111/101/1 112/102/1 101/103/1 100/104/1
f 112/101/1 113/102/1 102/103/1 101/104/1
f 113/101/1 114/102/1 103/103/1 102/104/1
f 114/101/1 115/102/1 104/103/1 103/104/1
f 117/101/1 118/102/1 107/103/1 106/104/1
f 118/101/1 119/102/1 108/103/1 107/104/1
f 119/101/1 120/102/1 109/103/1 108/104/1
f 120/101/1 121/102/1 110/103/1 109/104/1

