# Wavefront OBJ file automatically generated by Tiled2Unity

# Vertices (Count = 121)
v 0 -0.32 0
v -0.32 -0.32 0
v -0.32 0 0
v 0 0 0
v -0.64 -0.32 0
v -0.64 0 0
v -0.96 -0.32 0
v -0.96 0 0
v -1.28 -0.32 0
v -1.28 0 0
v -1.6 -0.32 0
v -1.6 0 0
v -1.92 -0.32 0
v -1.92 0 0
v -2.24 -0.32 0
v -2.24 0 0
v -2.56 -0.32 0
v -2.56 0 0
v -2.88 -0.32 0
v -2.88 0 0
v -3.2 -0.32 0
v -3.2 0 0
v 0 -0.64 0
v -0.32 -0.64 0
v -0.64 -0.64 0
v -0.96 -0.64 0
v -1.28 -0.64 0
v -1.6 -0.64 0
v -1.92 -0.64 0
v -2.24 -0.64 0
v -2.56 -0.64 0
v -2.88 -0.64 0
v -3.2 -0.64 0
v 0 -0.96 0
v -0.32 -0.96 0
v -0.64 -0.96 0
v -0.96 -0.96 0
v -1.28 -0.96 0
v -1.6 -0.96 0
v -1.92 -0.96 0
v -2.24 -0.96 0
v -2.56 -0.96 0
v -2.88 -0.96 0
v -3.2 -0.96 0
v 0 -1.28 0
v -0.32 -1.28 0
v -0.64 -1.28 0
v -0.96 -1.28 0
v -1.28 -1.28 0
v -1.6 -1.28 0
v -1.92 -1.28 0
v -2.24 -1.28 0
v -2.56 -1.28 0
v -2.88 -1.28 0
v -3.2 -1.28 0
v 0 -1.6 0
v -0.32 -1.6 0
v -0.64 -1.6 0
v -0.96 -1.6 0
v -1.28 -1.6 0
v -1.6 -1.6 0
v -1.92 -1.6 0
v -2.24 -1.6 0
v -2.56 -1.6 0
v -2.88 -1.6 0
v -3.2 -1.6 0
v 0 -1.92 0
v -0.32 -1.92 0
v -0.64 -1.92 0
v -0.96 -1.92 0
v -1.28 -1.92 0
v -1.6 -1.92 0
v -1.92 -1.92 0
v -2.24 -1.92 0
v -2.56 -1.92 0
v -2.88 -1.92 0
v -3.2 -1.92 0
v 0 -2.24 0
v -0.32 -2.24 0
v -0.64 -2.24 0
v -0.96 -2.24 0
v -1.28 -2.24 0
v -1.6 -2.24 0
v -1.92 -2.24 0
v -2.24 -2.24 0
v -2.56 -2.24 0
v -2.88 -2.24 0
v -3.2 -2.24 0
v 0 -2.56 0
v -0.32 -2.56 0
v -0.64 -2.56 0
v -0.96 -2.56 0
v -1.28 -2.56 0
v -1.6 -2.56 0
v -1.92 -2.56 0
v -2.24 -2.56 0
v -2.56 -2.56 0
v -2.88 -2.56 0
v -3.2 -2.56 0
v 0 -2.88 0
v -0.32 -2.88 0
v -0.64 -2.88 0
v -0.96 -2.88 0
v -1.28 -2.88 0
v -1.6 -2.88 0
v -1.92 -2.88 0
v -2.24 -2.88 0
v -2.56 -2.88 0
v -2.88 -2.88 0
v -3.2 -2.88 0
v 0 -3.2 0
v -0.32 -3.2 0
v -0.64 -3.2 0
v -0.96 -3.2 0
v -1.28 -3.2 0
v -1.6 -3.2 0
v -1.92 -3.2 0
v -2.24 -3.2 0
v -2.56 -3.2 0
v -2.88 -3.2 0
v -3.2 -3.2 0

# Texture cooridinates (Count = 140)
vt 0.5667887 0.7667887
vt 0.599878 0.7667887
vt 0.599878 0.7998779
vt 0.5667887 0.7998779
vt 0.6001221 0.7667887
vt 0.6332113 0.7667887
vt 0.6332113 0.7998779
vt 0.6001221 0.7998779
vt 0.6334554 0.7667887
vt 0.6665446 0.7667887
vt 0.6665446 0.7998779
vt 0.6334554 0.7998779
vt 0.5667887 0.7334554
vt 0.599878 0.7334554
vt 0.599878 0.7665446
vt 0.5667887 0.7665446
vt 0.6334554 0.8001221
vt 0.6665446 0.8001221
vt 0.6665446 0.8332112
vt 0.6334554 0.8332112
vt 0.6334554 0.7334554
vt 0.6665446 0.7334554
vt 0.6665446 0.7665446
vt 0.6334554 0.7665446
vt 0.5667887 0.7001221
vt 0.599878 0.7001221
vt 0.599878 0.7332113
vt 0.5667887 0.7332113
vt 0.6001221 0.7001221
vt 0.6332113 0.7001221
vt 0.6332113 0.7332113
vt 0.6001221 0.7332113
vt 0.6334554 0.7001221
vt 0.6665446 0.7001221
vt 0.6665446 0.7332113
vt 0.6334554 0.7332113
vt 0.0001220703 0.6667887
vt 0.03321126 0.6667887
vt 0.03321126 0.6998779
vt 0.0001220703 0.6998779
vt 0.1334554 0.7334554
vt 0.1665446 0.7334554
vt 0.1665446 0.7665446
vt 0.1334554 0.7665446
vt 0.2001221 0.7667887
vt 0.2332113 0.7667887
vt 0.2332113 0.7998779
vt 0.2001221 0.7998779
vt 0.2001221 0.7334554
vt 0.2332113 0.7334554
vt 0.2332113 0.7665446
vt 0.2001221 0.7665446
vt 0.0001220703 0.6334554
vt 0.03321126 0.6334554
vt 0.03321126 0.6665446
vt 0.0001220703 0.6665446
vt 0.1334554 0.7001221
vt 0.1665446 0.7001221
vt 0.1665446 0.7332113
vt 0.1334554 0.7332113
vt 0.1667887 0.7001221
vt 0.1998779 0.7001221
vt 0.1998779 0.7332113
vt 0.1667887 0.7332113
vt 0.2001221 0.7001221
vt 0.2332113 0.7001221
vt 0.2332113 0.7332113
vt 0.2001221 0.7332113
vt 0.4334554 0.4334554
vt 0.4665446 0.4334554
vt 0.4665446 0.4665446
vt 0.4334554 0.4665446
vt 0.4334554 0.400122
vt 0.4665446 0.400122
vt 0.4665446 0.4332113
vt 0.4334554 0.4332113
vt 0.4667887 0.400122
vt 0.4998779 0.400122
vt 0.4998779 0.4332113
vt 0.4667887 0.4332113
vt 0.5001221 0.400122
vt 0.5332113 0.400122
vt 0.5332113 0.4332113
vt 0.5001221 0.4332113
vt 0.4001221 0.2334554
vt 0.4332113 0.2334554
vt 0.4332113 0.2665446
vt 0.4001221 0.2665446
vt 0.4334554 0.2334554
vt 0.4665446 0.2334554
vt 0.4665446 0.2665446
vt 0.4334554 0.2665446
vt 0.4334554 0.3667887
vt 0.4665446 0.3667887
vt 0.4665446 0.3998779
vt 0.4334554 0.3998779
vt 0.4667887 0.3667887
vt 0.4998779 0.3667887
vt 0.4998779 0.3998779
vt 0.4667887 0.3998779
vt 0.5001221 0.3667887
vt 0.5332113 0.3667887
vt 0.5332113 0.3998779
vt 0.5001221 0.3998779
vt 0.4001221 0.2001221
vt 0.4332113 0.2001221
vt 0.4332113 0.2332113
vt 0.4001221 0.2332113
vt 0.4334554 0.2001221
vt 0.4665446 0.2001221
vt 0.4665446 0.2332113
vt 0.4334554 0.2332113
vt 0.3001221 0.5001221
vt 0.3332113 0.5001221
vt 0.3332113 0.5332112
vt 0.3001221 0.5332112
vt 0.2667888 0.5001221
vt 0.2998779 0.5001221
vt 0.2998779 0.5332112
vt 0.2667888 0.5332112
vt 0.3334554 0.3001221
vt 0.3665446 0.3001221
vt 0.3665446 0.3332112
vt 0.3334554 0.3332112
vt 0.3667887 0.3001221
vt 0.3998779 0.3001221
vt 0.3998779 0.3332112
vt 0.3667887 0.3332112
vt 0.3334554 0.2667887
vt 0.3665446 0.2667887
vt 0.3665446 0.2998779
vt 0.3334554 0.2998779
vt 0.3667887 0.2667887
vt 0.3998779 0.2667887
vt 0.3998779 0.2998779
vt 0.3667887 0.2998779
vt 0.0001220703 0.0001220703
vt 0.9998779 0.0001220703
vt 0.9998779 0.9998779
vt 0.0001220703 0.9998779

# Normal
vn 0 0 -1

# Groups (Count = 3)

g mesh_0001
f 1/1/1 2/2/1 3/3/1 4/4/1
f 2/5/1 5/6/1 6/7/1 3/8/1
f 5/5/1 7/6/1 8/7/1 6/8/1
f 7/5/1 9/6/1 10/7/1 8/8/1
f 9/5/1 11/6/1 12/7/1 10/8/1
f 11/5/1 13/6/1 14/7/1 12/8/1
f 13/5/1 15/6/1 16/7/1 14/8/1
f 15/5/1 17/6/1 18/7/1 16/8/1
f 17/5/1 19/6/1 20/7/1 18/8/1
f 19/9/1 21/10/1 22/11/1 20/12/1
f 23/13/1 24/14/1 2/15/1 1/16/1
f 24/17/1 25/18/1 5/19/1 2/20/1
f 25/17/1 26/18/1 7/19/1 5/20/1
f 26/17/1 27/18/1 9/19/1 7/20/1
f 27/17/1 28/18/1 11/19/1 9/20/1
f 28/17/1 29/18/1 13/19/1 11/20/1
f 29/17/1 30/18/1 15/19/1 13/20/1
f 30/17/1 31/18/1 17/19/1 15/20/1
f 31/17/1 32/18/1 19/19/1 17/20/1
f 32/21/1 33/22/1 21/23/1 19/24/1
f 34/13/1 35/14/1 24/15/1 23/16/1
f 35/17/1 36/18/1 25/19/1 24/20/1
f 36/17/1 37/18/1 26/19/1 25/20/1
f 37/17/1 38/18/1 27/19/1 26/20/1
f 38/17/1 39/18/1 28/19/1 27/20/1
f 39/17/1 40/18/1 29/19/1 28/20/1
f 40/17/1 41/18/1 30/19/1 29/20/1
f 41/17/1 42/18/1 31/19/1 30/20/1
f 42/17/1 43/18/1 32/19/1 31/20/1
f 43/21/1 44/22/1 33/23/1 32/24/1
f 45/13/1 46/14/1 35/15/1 34/16/1
f 46/17/1 47/18/1 36/19/1 35/20/1
f 47/17/1 48/18/1 37/19/1 36/20/1
f 48/17/1 49/18/1 38/19/1 37/20/1
f 49/17/1 50/18/1 39/19/1 38/20/1
f 50/17/1 51/18/1 40/19/1 39/20/1
f 51/17/1 52/18/1 41/19/1 40/20/1
f 52/17/1 53/18/1 42/19/1 41/20/1
f 53/17/1 54/18/1 43/19/1 42/20/1
f 54/21/1 55/22/1 44/23/1 43/24/1
f 56/13/1 57/14/1 46/15/1 45/16/1
f 57/17/1 58/18/1 47/19/1 46/20/1
f 58/17/1 59/18/1 48/19/1 47/20/1
f 59/17/1 60/18/1 49/19/1 48/20/1
f 60/17/1 61/18/1 50/19/1 49/20/1
f 61/17/1 62/18/1 51/19/1 50/20/1
f 62/17/1 63/18/1 52/19/1 51/20/1
f 63/17/1 64/18/1 53/19/1 52/20/1
f 64/17/1 65/18/1 54/19/1 53/20/1
f 65/21/1 66/22/1 55/23/1 54/24/1
f 67/13/1 68/14/1 57/15/1 56/16/1
f 68/17/1 69/18/1 58/19/1 57/20/1
f 69/17/1 70/18/1 59/19/1 58/20/1
f 70/17/1 71/18/1 60/19/1 59/20/1
f 71/17/1 72/18/1 61/19/1 60/20/1
f 72/17/1 73/18/1 62/19/1 61/20/1
f 73/17/1 74/18/1 63/19/1 62/20/1
f 74/17/1 75/18/1 64/19/1 63/20/1
f 75/17/1 76/18/1 65/19/1 64/20/1
f 76/21/1 77/22/1 66/23/1 65/24/1
f 78/13/1 79/14/1 68/15/1 67/16/1
f 79/17/1 80/18/1 69/19/1 68/20/1
f 80/17/1 81/18/1 70/19/1 69/20/1
f 81/17/1 82/18/1 71/19/1 70/20/1
f 82/17/1 83/18/1 72/19/1 71/20/1
f 83/17/1 84/18/1 73/19/1 72/20/1
f 84/17/1 85/18/1 74/19/1 73/20/1
f 85/17/1 86/18/1 75/19/1 74/20/1
f 86/17/1 87/18/1 76/19/1 75/20/1
f 87/21/1 88/22/1 77/23/1 76/24/1
f 89/13/1 90/14/1 79/15/1 78/16/1
f 90/17/1 91/18/1 80/19/1 79/20/1
f 91/17/1 92/18/1 81/19/1 80/20/1
f 92/17/1 93/18/1 82/19/1 81/20/1
f 93/17/1 94/18/1 83/19/1 82/20/1
f 94/17/1 95/18/1 84/19/1 83/20/1
f 95/17/1 96/18/1 85/19/1 84/20/1
f 96/17/1 97/18/1 86/19/1 85/20/1
f 97/17/1 98/18/1 87/19/1 86/20/1
f 98/21/1 99/22/1 88/23/1 87/24/1
f 100/13/1 101/14/1 90/15/1 89/16/1
f 101/17/1 102/18/1 91/19/1 90/20/1
f 102/17/1 103/18/1 92/19/1 91/20/1
f 103/17/1 104/18/1 93/19/1 92/20/1
f 104/17/1 105/18/1 94/19/1 93/20/1
f 105/17/1 106/18/1 95/19/1 94/20/1
f 106/17/1 107/18/1 96/19/1 95/20/1
f 107/17/1 108/18/1 97/19/1 96/20/1
f 108/17/1 109/18/1 98/19/1 97/20/1
f 109/21/1 110/22/1 99/23/1 98/24/1
f 111/25/1 112/26/1 101/27/1 100/28/1
f 112/29/1 113/30/1 102/31/1 101/32/1
f 113/29/1 114/30/1 103/31/1 102/32/1
f 114/29/1 115/30/1 104/31/1 103/32/1
f 115/17/1 116/18/1 105/19/1 104/20/1
f 116/17/1 117/18/1 106/19/1 105/20/1
f 117/29/1 118/30/1 107/31/1 106/32/1
f 118/29/1 119/30/1 108/31/1 107/32/1
f 119/29/1 120/30/1 109/31/1 108/32/1
f 120/33/1 121/34/1 110/35/1 109/36/1

g mesh_0002
f 7/37/1 9/38/1 10/39/1 8/40/1
f 9/41/1 11/42/1 12/43/1 10/44/1
f 11/45/1 13/46/1 14/47/1 12/48/1
f 13/49/1 15/50/1 16/51/1 14/52/1
f 26/53/1 27/54/1 9/55/1 7/56/1
f 27/57/1 28/58/1 11/59/1 9/60/1
f 28/61/1 29/62/1 13/63/1 11/64/1
f 29/65/1 30/66/1 15/67/1 13/68/1
f 30/69/1 31/70/1 17/71/1 15/72/1
f 49/73/1 50/74/1 39/75/1 38/76/1
f 50/77/1 51/78/1 40/79/1 39/80/1
f 51/81/1 52/82/1 41/83/1 40/84/1
f 52/85/1 53/86/1 42/87/1 41/88/1
f 53/89/1 54/90/1 43/91/1 42/92/1
f 60/93/1 61/94/1 50/95/1 49/96/1
f 61/97/1 62/98/1 51/99/1 50/100/1
f 62/101/1 63/102/1 52/103/1 51/104/1
f 63/105/1 64/106/1 53/107/1 52/108/1
f 64/109/1 65/110/1 54/111/1 53/112/1
f 90/113/1 91/114/1 80/115/1 79/116/1
f 91/117/1 92/118/1 81/119/1 80/120/1
f 92/113/1 93/114/1 82/115/1 81/116/1
f 108/121/1 109/122/1 98/123/1 97/124/1
f 109/125/1 110/126/1 99/127/1 98/128/1
f 119/129/1 120/130/1 109/131/1 108/132/1
f 120/133/1 121/134/1 110/135/1 109/136/1

g mesh_0003
f 1/137/1 2/138/1 3/139/1 4/140/1
f 2/137/1 5/138/1 6/139/1 3/140/1
f 5/137/1 7/138/1 8/139/1 6/140/1
f 7/137/1 9/138/1 10/139/1 8/140/1
f 9/137/1 11/138/1 12/139/1 10/140/1
f 11/137/1 13/138/1 14/139/1 12/140/1
f 13/137/1 15/138/1 16/139/1 14/140/1
f 15/137/1 17/138/1 18/139/1 16/140/1
f 17/137/1 19/138/1 20/139/1 18/140/1
f 19/137/1 21/138/1 22/139/1 20/140/1
f 23/137/1 24/138/1 2/139/1 1/140/1
f 26/137/1 27/138/1 9/139/1 7/140/1
f 27/137/1 28/138/1 11/139/1 9/140/1
f 28/137/1 29/138/1 13/139/1 11/140/1
f 29/137/1 30/138/1 15/139/1 13/140/1
f 30/137/1 31/138/1 17/139/1 15/140/1
f 32/137/1 33/138/1 21/139/1 19/140/1
f 34/137/1 35/138/1 24/139/1 23/140/1
f 43/137/1 44/138/1 33/139/1 32/140/1
f 45/137/1 46/138/1 35/139/1 34/140/1
f 52/137/1 53/138/1 42/139/1 41/140/1
f 53/137/1 54/138/1 43/139/1 42/140/1
f 54/137/1 55/138/1 44/139/1 43/140/1
f 56/137/1 57/138/1 46/139/1 45/140/1
f 63/137/1 64/138/1 53/139/1 52/140/1
f 64/137/1 65/138/1 54/139/1 53/140/1
f 65/137/1 66/138/1 55/139/1 54/140/1
f 67/137/1 68/138/1 57/139/1 56/140/1
f 76/137/1 77/138/1 66/139/1 65/140/1
f 78/137/1 79/138/1 68/139/1 67/140/1
f 87/137/1 88/138/1 77/139/1 76/140/1
f 89/137/1 90/138/1 79/139/1 78/140/1
f 91/137/1 92/138/1 81/139/1 80/140/1
f 98/137/1 99/138/1 88/139/1 87/140/1
f 100/137/1 101/138/1 90/139/1 89/140/1
f 109/137/1 110/138/1 99/139/1 98/140/1
f 111/137/1 112/138/1 101/139/1 100/140/1
f 112/137/1 113/138/1 102/139/1 101/140/1
f 113/137/1 114/138/1 103/139/1 102/140/1
f 114/137/1 115/138/1 104/139/1 103/140/1
f 117/137/1 118/138/1 107/139/1 106/140/1
f 118/137/1 119/138/1 108/139/1 107/140/1
f 119/137/1 120/138/1 109/139/1 108/140/1
f 120/137/1 121/138/1 110/139/1 109/140/1

