# Wavefront OBJ file automatically generated by Tiled2Unity

# Vertices (Count = 121)
v 0 -0.32 0
v -0.32 -0.32 0
v -0.32 0 0
v 0 0 0
v -0.64 -0.32 0
v -0.64 0 0
v -0.96 -0.32 0
v -0.96 0 0
v -1.28 -0.32 0
v -1.28 0 0
v -1.6 -0.32 0
v -1.6 0 0
v -1.92 -0.32 0
v -1.92 0 0
v -2.24 -0.32 0
v -2.24 0 0
v -2.56 -0.32 0
v -2.56 0 0
v -2.88 -0.32 0
v -2.88 0 0
v -3.2 -0.32 0
v -3.2 0 0
v 0 -0.64 0
v -0.32 -0.64 0
v -0.64 -0.64 0
v -0.96 -0.64 0
v -1.28 -0.64 0
v -1.6 -0.64 0
v -1.92 -0.64 0
v -2.24 -0.64 0
v -2.56 -0.64 0
v -2.88 -0.64 0
v -3.2 -0.64 0
v 0 -0.96 0
v -0.32 -0.96 0
v -0.64 -0.96 0
v -0.96 -0.96 0
v -1.28 -0.96 0
v -1.6 -0.96 0
v -1.92 -0.96 0
v -2.24 -0.96 0
v -2.56 -0.96 0
v -2.88 -0.96 0
v -3.2 -0.96 0
v 0 -1.28 0
v -0.32 -1.28 0
v -0.64 -1.28 0
v -0.96 -1.28 0
v -1.28 -1.28 0
v -1.6 -1.28 0
v -1.92 -1.28 0
v -2.24 -1.28 0
v -2.56 -1.28 0
v -2.88 -1.28 0
v -3.2 -1.28 0
v 0 -1.6 0
v -0.32 -1.6 0
v -0.64 -1.6 0
v -0.96 -1.6 0
v -1.28 -1.6 0
v -1.6 -1.6 0
v -1.92 -1.6 0
v -2.24 -1.6 0
v -2.56 -1.6 0
v -2.88 -1.6 0
v -3.2 -1.6 0
v 0 -1.92 0
v -0.32 -1.92 0
v -0.64 -1.92 0
v -0.96 -1.92 0
v -1.28 -1.92 0
v -1.6 -1.92 0
v -1.92 -1.92 0
v -2.24 -1.92 0
v -2.56 -1.92 0
v -2.88 -1.92 0
v -3.2 -1.92 0
v 0 -2.24 0
v -0.32 -2.24 0
v -0.64 -2.24 0
v -0.96 -2.24 0
v -1.28 -2.24 0
v -1.6 -2.24 0
v -1.92 -2.24 0
v -2.24 -2.24 0
v -2.56 -2.24 0
v -2.88 -2.24 0
v -3.2 -2.24 0
v 0 -2.56 0
v -0.32 -2.56 0
v -0.64 -2.56 0
v -0.96 -2.56 0
v -1.28 -2.56 0
v -1.6 -2.56 0
v -1.92 -2.56 0
v -2.24 -2.56 0
v -2.56 -2.56 0
v -2.88 -2.56 0
v -3.2 -2.56 0
v 0 -2.88 0
v -0.32 -2.88 0
v -0.64 -2.88 0
v -0.96 -2.88 0
v -1.28 -2.88 0
v -1.6 -2.88 0
v -1.92 -2.88 0
v -2.24 -2.88 0
v -2.56 -2.88 0
v -2.88 -2.88 0
v -3.2 -2.88 0
v 0 -3.2 0
v -0.32 -3.2 0
v -0.64 -3.2 0
v -0.96 -3.2 0
v -1.28 -3.2 0
v -1.6 -3.2 0
v -1.92 -3.2 0
v -2.24 -3.2 0
v -2.56 -3.2 0
v -2.88 -3.2 0
v -3.2 -3.2 0

# Texture cooridinates (Count = 256)
vt 0.1334554 0.2667887
vt 0.1665446 0.2667887
vt 0.1665446 0.2998779
vt 0.1334554 0.2998779
vt 0.1667887 0.4667887
vt 0.1998779 0.4667887
vt 0.1998779 0.4998779
vt 0.1667887 0.4998779
vt 0.2001221 0.4667887
vt 0.2332113 0.4667887
vt 0.2332113 0.4998779
vt 0.2001221 0.4998779
vt 0.2334554 0.4667887
vt 0.2665446 0.4667887
vt 0.2665446 0.4998779
vt 0.2334554 0.4998779
vt 0.1001221 0.6334554
vt 0.1332113 0.6334554
vt 0.1332113 0.6665446
vt 0.1001221 0.6665446
vt 0.06678874 0.6334554
vt 0.09987793 0.6334554
vt 0.09987793 0.6665446
vt 0.06678874 0.6665446
vt 0.1001221 0.4334554
vt 0.1332113 0.4334554
vt 0.1332113 0.4665446
vt 0.1001221 0.4665446
vt 0.1334554 0.4334554
vt 0.1665446 0.4334554
vt 0.1665446 0.4665446
vt 0.1334554 0.4665446
vt 0.1667887 0.4334554
vt 0.1998779 0.4334554
vt 0.1998779 0.4665446
vt 0.1667887 0.4665446
vt 0.2001221 0.4334554
vt 0.2332113 0.4334554
vt 0.2332113 0.4665446
vt 0.2001221 0.4665446
vt 0.2334554 0.4334554
vt 0.2665446 0.4334554
vt 0.2665446 0.4665446
vt 0.2334554 0.4665446
vt 0.1001221 0.6001221
vt 0.1332113 0.6001221
vt 0.1332113 0.6332113
vt 0.1001221 0.6332113
vt 0.03345541 0.2667887
vt 0.0665446 0.2667887
vt 0.0665446 0.2998779
vt 0.03345541 0.2998779
vt 0.0001220703 0.2667887
vt 0.03321126 0.2667887
vt 0.03321126 0.2998779
vt 0.0001220703 0.2998779
vt 0.1001221 0.400122
vt 0.1332113 0.400122
vt 0.1332113 0.4332113
vt 0.1001221 0.4332113
vt 0.1334554 0.400122
vt 0.1665446 0.400122
vt 0.1665446 0.4332113
vt 0.1334554 0.4332113
vt 0.1667887 0.400122
vt 0.1998779 0.400122
vt 0.1998779 0.4332113
vt 0.1667887 0.4332113
vt 0.2001221 0.400122
vt 0.2332113 0.400122
vt 0.2332113 0.4332113
vt 0.2001221 0.4332113
vt 0.2334554 0.400122
vt 0.2665446 0.400122
vt 0.2665446 0.4332113
vt 0.2334554 0.4332113
vt 0.0001220703 0.3001221
vt 0.03321126 0.3001221
vt 0.03321126 0.3332112
vt 0.0001220703 0.3332112
vt 0.03345541 0.3001221
vt 0.0665446 0.3001221
vt 0.0665446 0.3332112
vt 0.03345541 0.3332112
vt 0.06678874 0.3001221
vt 0.09987793 0.3001221
vt 0.09987793 0.3332112
vt 0.06678874 0.3332112
vt 0.1001221 0.3667887
vt 0.1332113 0.3667887
vt 0.1332113 0.3998779
vt 0.1001221 0.3998779
vt 0.1334554 0.3667887
vt 0.1665446 0.3667887
vt 0.1665446 0.3998779
vt 0.1334554 0.3998779
vt 0.1667887 0.3667887
vt 0.1998779 0.3667887
vt 0.1998779 0.3998779
vt 0.1667887 0.3998779
vt 0.2001221 0.3667887
vt 0.2332113 0.3667887
vt 0.2332113 0.3998779
vt 0.2001221 0.3998779
vt 0.2334554 0.3667887
vt 0.2665446 0.3667887
vt 0.2665446 0.3998779
vt 0.2334554 0.3998779
vt 0.1667887 0.3334554
vt 0.1998779 0.3334554
vt 0.1998779 0.3665446
vt 0.1667887 0.3665446
vt 0.1001221 0.3334554
vt 0.1332113 0.3334554
vt 0.1332113 0.3665446
vt 0.1001221 0.3665446
vt 0.1334554 0.3334554
vt 0.1665446 0.3334554
vt 0.1665446 0.3665446
vt 0.1334554 0.3665446
vt 0.2001221 0.3334554
vt 0.2332113 0.3334554
vt 0.2332113 0.3665446
vt 0.2001221 0.3665446
vt 0.2334554 0.3334554
vt 0.2665446 0.3334554
vt 0.2665446 0.3665446
vt 0.2334554 0.3665446
vt 0.06678874 0.2667887
vt 0.09987793 0.2667887
vt 0.09987793 0.2998779
vt 0.06678874 0.2998779
vt 0.06678874 0.5667887
vt 0.09987793 0.5667887
vt 0.09987793 0.599878
vt 0.06678874 0.599878
vt 0.06678874 0.6001221
vt 0.09987793 0.6001221
vt 0.09987793 0.6332113
vt 0.06678874 0.6332113
vt 0.1334554 0.8334554
vt 0.1665446 0.8334554
vt 0.1665446 0.8665446
vt 0.1334554 0.8665446
vt 0.1001221 0.8667887
vt 0.1332113 0.8667887
vt 0.1332113 0.8998779
vt 0.1001221 0.8998779
vt 0.03345541 0.8334554
vt 0.0665446 0.8334554
vt 0.0665446 0.8665446
vt 0.03345541 0.8665446
vt 0.1334554 0.8001221
vt 0.1665446 0.8001221
vt 0.1665446 0.8332112
vt 0.1334554 0.8332112
vt 0.1001221 0.8334554
vt 0.1332113 0.8334554
vt 0.1332113 0.8665446
vt 0.1001221 0.8665446
vt 0.03345541 0.8001221
vt 0.0665446 0.8001221
vt 0.0665446 0.8332112
vt 0.03345541 0.8332112
vt 0.03345541 0.7667887
vt 0.0665446 0.7667887
vt 0.0665446 0.7998779
vt 0.03345541 0.7998779
vt 0.06678874 0.7667887
vt 0.09987793 0.7667887
vt 0.09987793 0.7998779
vt 0.06678874 0.7998779
vt 0.1001221 0.7667887
vt 0.1332113 0.7667887
vt 0.1332113 0.7998779
vt 0.1001221 0.7998779
vt 0.03345541 0.7334554
vt 0.0665446 0.7334554
vt 0.0665446 0.7665446
vt 0.03345541 0.7665446
vt 0.06678874 0.7334554
vt 0.09987793 0.7334554
vt 0.09987793 0.7665446
vt 0.06678874 0.7665446
vt 0.1001221 0.7334554
vt 0.1332113 0.7334554
vt 0.1332113 0.7665446
vt 0.1001221 0.7665446
vt 0.1001221 0.5667887
vt 0.1332113 0.5667887
vt 0.1332113 0.599878
vt 0.1001221 0.599878
vt 0.1334554 0.5667887
vt 0.1665446 0.5667887
vt 0.1665446 0.599878
vt 0.1334554 0.599878
vt 0.1667887 0.5667887
vt 0.1998779 0.5667887
vt 0.1998779 0.599878
vt 0.1667887 0.599878
vt 0.03345541 0.7001221
vt 0.0665446 0.7001221
vt 0.0665446 0.7332113
vt 0.03345541 0.7332113
vt 0.06678874 0.7001221
vt 0.09987793 0.7001221
vt 0.09987793 0.7332113
vt 0.06678874 0.7332113
vt 0.1001221 0.7001221
vt 0.1332113 0.7001221
vt 0.1332113 0.7332113
vt 0.1001221 0.7332113
vt 0.0001220703 0.5667887
vt 0.03321126 0.5667887
vt 0.03321126 0.599878
vt 0.0001220703 0.599878
vt 0.1001221 0.5334554
vt 0.1332113 0.5334554
vt 0.1332113 0.5665446
vt 0.1001221 0.5665446
vt 0.1334554 0.5334554
vt 0.1665446 0.5334554
vt 0.1665446 0.5665446
vt 0.1334554 0.5665446
vt 0.1667887 0.5334554
vt 0.1998779 0.5334554
vt 0.1998779 0.5665446
vt 0.1667887 0.5665446
vt 0.0001220703 0.5334554
vt 0.03321126 0.5334554
vt 0.03321126 0.5665446
vt 0.0001220703 0.5665446
vt 0.0001220703 0.4334554
vt 0.03321126 0.4334554
vt 0.03321126 0.4665446
vt 0.0001220703 0.4665446
vt 0.2667888 0.2667887
vt 0.2998779 0.2667887
vt 0.2998779 0.2998779
vt 0.2667888 0.2998779
vt 0.2334554 0.2334554
vt 0.2665446 0.2334554
vt 0.2665446 0.2665446
vt 0.2334554 0.2665446
vt 0.2334554 0.2001221
vt 0.2665446 0.2001221
vt 0.2665446 0.2332113
vt 0.2334554 0.2332113
vt 0.2001221 0.2667887
vt 0.2332113 0.2667887
vt 0.2332113 0.2998779
vt 0.2001221 0.2998779
vt 0.0001220703 0.0001220703
vt 0.9998779 0.0001220703
vt 0.9998779 0.9998779
vt 0.0001220703 0.9998779

# Normal
vn 0 0 -1

# Groups (Count = 4)

g mesh_0001
f 1/1/1 2/2/1 3/3/1 4/4/1
f 2/1/1 5/2/1 6/3/1 3/4/1
f 5/5/1 7/6/1 8/7/1 6/8/1
f 7/9/1 9/10/1 10/11/1 8/12/1
f 9/13/1 11/14/1 12/15/1 10/16/1
f 11/17/1 13/18/1 14/19/1 12/20/1
f 13/21/1 15/22/1 16/23/1 14/24/1
f 15/17/1 17/18/1 18/19/1 16/20/1
f 17/21/1 19/22/1 20/23/1 18/24/1
f 19/17/1 21/18/1 22/19/1 20/20/1
f 23/25/1 24/26/1 2/27/1 1/28/1
f 24/29/1 25/30/1 5/31/1 2/32/1
f 25/33/1 26/34/1 7/35/1 5/36/1
f 26/37/1 27/38/1 9/39/1 7/40/1
f 27/41/1 28/42/1 11/43/1 9/44/1
f 28/45/1 29/46/1 13/47/1 11/48/1
f 29/49/1 30/50/1 15/51/1 13/52/1
f 30/45/1 31/46/1 17/47/1 15/48/1
f 31/53/1 32/54/1 19/55/1 17/56/1
f 32/45/1 33/46/1 21/47/1 19/48/1
f 34/57/1 35/58/1 24/59/1 23/60/1
f 35/61/1 36/62/1 25/63/1 24/64/1
f 36/65/1 37/66/1 26/67/1 25/68/1
f 37/69/1 38/70/1 27/71/1 26/72/1
f 38/73/1 39/74/1 28/75/1 27/76/1
f 39/77/1 40/78/1 29/79/1 28/80/1
f 40/81/1 41/82/1 30/83/1 29/84/1
f 41/77/1 42/78/1 31/79/1 30/80/1
f 42/81/1 43/82/1 32/83/1 31/84/1
f 43/85/1 44/86/1 33/87/1 32/88/1
f 45/89/1 46/90/1 35/91/1 34/92/1
f 46/93/1 47/94/1 36/95/1 35/96/1
f 47/97/1 48/98/1 37/99/1 36/100/1
f 48/101/1 49/102/1 38/103/1 37/104/1
f 49/105/1 50/106/1 39/107/1 38/108/1
f 50/53/1 51/54/1 40/55/1 39/56/1
f 51/49/1 52/50/1 41/51/1 40/52/1
f 52/53/1 53/54/1 42/55/1 41/56/1
f 53/49/1 54/50/1 43/51/1 42/52/1
f 54/109/1 55/110/1 44/111/1 43/112/1
f 56/113/1 57/114/1 46/115/1 45/116/1
f 57/117/1 58/118/1 47/119/1 46/120/1
f 58/109/1 59/110/1 48/111/1 47/112/1
f 59/121/1 60/122/1 49/123/1 48/124/1
f 60/125/1 61/126/1 50/127/1 49/128/1
f 61/113/1 62/114/1 51/115/1 50/116/1
f 62/117/1 63/118/1 52/119/1 51/120/1
f 63/53/1 64/54/1 53/55/1 52/56/1
f 64/49/1 65/50/1 54/51/1 53/52/1
f 65/109/1 66/110/1 55/111/1 54/112/1
f 67/77/1 68/78/1 57/79/1 56/80/1
f 68/77/1 69/78/1 58/79/1 57/80/1
f 69/109/1 70/110/1 59/111/1 58/112/1
f 70/109/1 71/110/1 60/111/1 59/112/1
f 71/109/1 72/110/1 61/111/1 60/112/1
f 72/81/1 73/82/1 62/83/1 61/84/1
f 73/85/1 74/86/1 63/87/1 62/88/1
f 74/77/1 75/78/1 64/79/1 63/80/1
f 75/81/1 76/82/1 65/83/1 64/84/1
f 76/85/1 77/86/1 66/87/1 65/88/1
f 78/53/1 79/54/1 68/55/1 67/56/1
f 79/53/1 80/54/1 69/55/1 68/56/1
f 80/49/1 81/50/1 70/51/1 69/52/1
f 81/109/1 82/110/1 71/111/1 70/112/1
f 82/53/1 83/54/1 72/55/1 71/56/1
f 83/49/1 84/50/1 73/51/1 72/52/1
f 84/129/1 85/130/1 74/131/1 73/132/1
f 85/53/1 86/54/1 75/55/1 74/56/1
f 86/49/1 87/50/1 76/51/1 75/52/1
f 87/129/1 88/130/1 77/131/1 76/132/1
f 89/133/1 90/134/1 79/135/1 78/136/1
f 90/133/1 91/134/1 80/135/1 79/136/1
f 91/133/1 92/134/1 81/135/1 80/136/1
f 92/77/1 93/78/1 82/79/1 81/80/1
f 93/77/1 94/78/1 83/79/1 82/80/1
f 94/133/1 95/134/1 84/135/1 83/136/1
f 95/133/1 96/134/1 85/135/1 84/136/1
f 96/133/1 97/134/1 86/135/1 85/136/1
f 97/133/1 98/134/1 87/135/1 86/136/1
f 98/133/1 99/134/1 88/135/1 87/136/1
f 100/137/1 101/138/1 90/139/1 89/140/1
f 101/137/1 102/138/1 91/139/1 90/140/1
f 102/137/1 103/138/1 92/139/1 91/140/1
f 103/77/1 104/78/1 93/79/1 92/80/1
f 104/81/1 105/82/1 94/83/1 93/84/1
f 105/137/1 106/138/1 95/139/1 94/140/1
f 106/137/1 107/138/1 96/139/1 95/140/1
f 107/137/1 108/138/1 97/139/1 96/140/1
f 108/137/1 109/138/1 98/139/1 97/140/1
f 109/137/1 110/138/1 99/139/1 98/140/1
f 111/137/1 112/138/1 101/139/1 100/140/1
f 112/137/1 113/138/1 102/139/1 101/140/1
f 113/137/1 114/138/1 103/139/1 102/140/1
f 114/53/1 115/54/1 104/55/1 103/56/1
f 115/49/1 116/50/1 105/51/1 104/52/1
f 116/137/1 117/138/1 106/139/1 105/140/1
f 117/137/1 118/138/1 107/139/1 106/140/1
f 118/137/1 119/138/1 108/139/1 107/140/1
f 119/137/1 120/138/1 109/139/1 108/140/1
f 120/137/1 121/138/1 110/139/1 109/140/1

g mesh_0002
f 11/141/1 13/142/1 14/143/1 12/144/1
f 13/145/1 15/146/1 16/147/1 14/148/1
f 15/141/1 17/142/1 18/143/1 16/144/1
f 17/145/1 19/146/1 20/147/1 18/148/1
f 19/149/1 21/150/1 22/151/1 20/152/1
f 28/153/1 29/154/1 13/155/1 11/156/1
f 29/157/1 30/158/1 15/159/1 13/160/1
f 30/153/1 31/154/1 17/155/1 15/156/1
f 31/157/1 32/158/1 19/159/1 17/160/1
f 32/161/1 33/162/1 21/163/1 19/164/1
f 62/165/1 63/166/1 52/167/1 51/168/1
f 63/169/1 64/170/1 53/171/1 52/172/1
f 64/173/1 65/174/1 54/175/1 53/176/1
f 73/177/1 74/178/1 63/179/1 62/180/1
f 74/181/1 75/182/1 64/183/1 63/184/1
f 75/185/1 76/186/1 65/187/1 64/188/1
f 81/189/1 82/190/1 71/191/1 70/192/1
f 82/193/1 83/194/1 72/195/1 71/196/1
f 83/197/1 84/198/1 73/199/1 72/200/1
f 84/201/1 85/202/1 74/203/1 73/204/1
f 85/205/1 86/206/1 75/207/1 74/208/1
f 86/209/1 87/210/1 76/211/1 75/212/1
f 89/213/1 90/214/1 79/215/1 78/216/1
f 90/213/1 91/214/1 80/215/1 79/216/1
f 91/213/1 92/214/1 81/215/1 80/216/1
f 92/217/1 93/218/1 82/219/1 81/220/1
f 93/221/1 94/222/1 83/223/1 82/224/1
f 94/225/1 95/226/1 84/227/1 83/228/1
f 95/213/1 96/214/1 85/215/1 84/216/1
f 96/213/1 97/214/1 86/215/1 85/216/1
f 97/213/1 98/214/1 87/215/1 86/216/1
f 98/213/1 99/214/1 88/215/1 87/216/1
f 100/229/1 101/230/1 90/231/1 89/232/1
f 101/229/1 102/230/1 91/231/1 90/232/1
f 102/229/1 103/230/1 92/231/1 91/232/1
f 103/229/1 104/230/1 93/231/1 92/232/1
f 104/49/1 105/50/1 94/51/1 93/52/1
f 105/229/1 106/230/1 95/231/1 94/232/1
f 106/229/1 107/230/1 96/231/1 95/232/1
f 107/229/1 108/230/1 97/231/1 96/232/1
f 108/229/1 109/230/1 98/231/1 97/232/1
f 109/229/1 110/230/1 99/231/1 98/232/1
f 114/137/1 115/138/1 104/139/1 103/140/1
f 115/49/1 116/50/1 105/51/1 104/52/1
f 118/233/1 119/234/1 108/235/1 107/236/1

g mesh_0003
f 28/237/1 29/238/1 13/239/1 11/240/1
f 39/241/1 40/242/1 29/243/1 28/244/1
f 50/245/1 51/246/1 40/247/1 39/248/1
f 64/249/1 65/250/1 54/251/1 53/252/1
f 73/249/1 74/250/1 63/251/1 62/252/1

g mesh_0004
f 2/253/1 5/254/1 6/255/1 3/256/1
f 5/253/1 7/254/1 8/255/1 6/256/1
f 7/253/1 9/254/1 10/255/1 8/256/1
f 9/253/1 11/254/1 12/255/1 10/256/1
f 11/253/1 13/254/1 14/255/1 12/256/1
f 13/253/1 15/254/1 16/255/1 14/256/1
f 15/253/1 17/254/1 18/255/1 16/256/1
f 17/253/1 19/254/1 20/255/1 18/256/1
f 19/253/1 21/254/1 22/255/1 20/256/1
f 24/253/1 25/254/1 5/255/1 2/256/1
f 28/253/1 29/254/1 13/255/1 11/256/1
f 32/253/1 33/254/1 21/255/1 19/256/1
f 35/253/1 36/254/1 25/255/1 24/256/1
f 36/253/1 37/254/1 26/255/1 25/256/1
f 37/253/1 38/254/1 27/255/1 26/256/1
f 39/253/1 40/254/1 29/255/1 28/256/1
f 43/253/1 44/254/1 33/255/1 32/256/1
f 45/253/1 46/254/1 35/255/1 34/256/1
f 46/253/1 47/254/1 36/255/1 35/256/1
f 47/253/1 48/254/1 37/255/1 36/256/1
f 48/253/1 49/254/1 38/255/1 37/256/1
f 50/253/1 51/254/1 40/255/1 39/256/1
f 54/253/1 55/254/1 44/255/1 43/256/1
f 56/253/1 57/254/1 46/255/1 45/256/1
f 65/253/1 66/254/1 55/255/1 54/256/1
f 67/253/1 68/254/1 57/255/1 56/256/1
f 74/253/1 75/254/1 64/255/1 63/256/1
f 76/253/1 77/254/1 66/255/1 65/256/1
f 78/253/1 79/254/1 68/255/1 67/256/1
f 87/253/1 88/254/1 77/255/1 76/256/1
f 89/253/1 90/254/1 79/255/1 78/256/1
f 90/253/1 91/254/1 80/255/1 79/256/1
f 91/253/1 92/254/1 81/255/1 80/256/1
f 92/253/1 93/254/1 82/255/1 81/256/1
f 94/253/1 95/254/1 84/255/1 83/256/1
f 95/253/1 96/254/1 85/255/1 84/256/1
f 96/253/1 97/254/1 86/255/1 85/256/1
f 97/253/1 98/254/1 87/255/1 86/256/1
f 98/253/1 99/254/1 88/255/1 87/256/1
f 103/253/1 104/254/1 93/255/1 92/256/1
f 105/253/1 106/254/1 95/255/1 94/256/1
f 114/253/1 115/254/1 104/255/1 103/256/1
f 116/253/1 117/254/1 106/255/1 105/256/1

